<svg width="20" height="20" viewBox="0 0 20 20" fill="none" xmlns="http://www.w3.org/2000/svg">
<path fill-rule="evenodd" clip-rule="evenodd" d="M13.6341 15.0187H6.41406C6.00006 15.0187 5.66406 14.6827 5.66406 14.2687C5.66406 13.8547 6.00006 13.5187 6.41406 13.5187H13.6341C14.0481 13.5187 14.3841 13.8547 14.3841 14.2687C14.3841 14.6827 14.0481 15.0187 13.6341 15.0187" fill="#980000"/>
<path fill-rule="evenodd" clip-rule="evenodd" d="M13.6341 10.8322H6.41406C6.00006 10.8322 5.66406 10.4962 5.66406 10.0822C5.66406 9.66815 6.00006 9.33215 6.41406 9.33215H13.6341C14.0481 9.33215 14.3841 9.66815 14.3841 10.0822C14.3841 10.4962 14.0481 10.8322 13.6341 10.8322" fill="#980000"/>
<path fill-rule="evenodd" clip-rule="evenodd" d="M9.16809 6.6554H6.41309C5.99909 6.6554 5.66309 6.3194 5.66309 5.9054C5.66309 5.4914 5.99909 5.1554 6.41309 5.1554H9.16809C9.58209 5.1554 9.91809 5.4914 9.91809 5.9054C9.91809 6.3194 9.58209 6.6554 9.16809 6.6554" fill="#980000"/>
<mask id="mask0_151_4517" style="mask-type:alpha" maskUnits="userSpaceOnUse" x="0" y="0" width="20" height="20">
<path fill-rule="evenodd" clip-rule="evenodd" d="M0.917969 0.045166H19.0827V19.955H0.917969V0.045166Z" fill="white"/>
</mask>
<g mask="url(#mask0_151_4517)">
<path fill-rule="evenodd" clip-rule="evenodd" d="M13.827 1.54498L6.13797 1.54898C3.80997 1.56298 2.41797 3.00298 2.41797 5.40198V14.598C2.41797 17.013 3.82297 18.455 6.17397 18.455L13.863 18.452C16.191 18.438 17.583 16.996 17.583 14.598V5.40198C17.583 2.98698 16.179 1.54498 13.827 1.54498ZM6.17497 19.955C3.03097 19.955 0.917969 17.802 0.917969 14.598V5.40198C0.917969 2.16898 2.96497 0.0679829 6.13297 0.0489829L13.826 0.0449829H13.827C16.971 0.0449829 19.083 2.19798 19.083 5.40198V14.598C19.083 17.83 17.036 19.932 13.868 19.952L6.17497 19.955Z" fill="#980000"/>
</g>
</svg>
