<svg width="24" height="24" viewBox="0 0 24 24" fill="none" xmlns="http://www.w3.org/2000/svg">
<path fill-rule="evenodd" clip-rule="evenodd" d="M20.7501 21.9397H13.4971C13.0831 21.9397 12.7471 21.6037 12.7471 21.1897C12.7471 20.7757 13.0831 20.4397 13.4971 20.4397H20.7501C21.1641 20.4397 21.5001 20.7757 21.5001 21.1897C21.5001 21.6037 21.1641 21.9397 20.7501 21.9397" fill="#008397"/>
<mask id="mask0_151_4516" style="mask-type:alpha" maskUnits="userSpaceOnUse" x="2" y="3" width="18" height="19">
<path fill-rule="evenodd" clip-rule="evenodd" d="M2 3.00018H19.1806V21.9397H2V3.00018Z" fill="white"/>
</mask>
<g mask="url(#mask0_151_4516)">
<path fill-rule="evenodd" clip-rule="evenodd" d="M13.1103 5.01683L3.69527 16.7918C3.52427 17.0058 3.46127 17.2818 3.52427 17.5468L4.20527 20.4318L7.24427 20.3938C7.53327 20.3908 7.80027 20.2618 7.97727 20.0418C11.1943 16.0168 17.3273 8.34283 17.5013 8.11783C17.6653 7.85183 17.7293 7.47583 17.6433 7.11383C17.5553 6.74283 17.3243 6.42783 16.9913 6.22683C16.9203 6.17783 15.2353 4.86983 15.1833 4.82883C14.5493 4.32083 13.6243 4.40883 13.1103 5.01683V5.01683ZM3.61327 21.9398C3.26627 21.9398 2.96427 21.7018 2.88327 21.3628L2.06427 17.8918C1.89527 17.1728 2.06327 16.4308 2.52427 15.8548L11.9443 4.07283C11.9483 4.06883 11.9513 4.06383 11.9553 4.05983C12.9883 2.82483 14.8563 2.64283 16.1163 3.65383C16.1663 3.69283 17.8393 4.99283 17.8393 4.99283C18.4473 5.35483 18.9223 6.00183 19.1023 6.76783C19.2813 7.52583 19.1513 8.30783 18.7343 8.96883C18.7033 9.01783 18.6763 9.05983 9.14827 20.9798C8.68927 21.5518 8.00127 21.8848 7.26227 21.8938L3.62327 21.9398H3.61327Z" fill="#008397"/>
</g>
<path fill-rule="evenodd" clip-rule="evenodd" d="M16.2234 11.6848C16.0634 11.6848 15.9034 11.6338 15.7664 11.5298L10.3144 7.34181C9.98642 7.08981 9.92442 6.61981 10.1764 6.28981C10.4294 5.96181 10.8994 5.90081 11.2284 6.15281L16.6814 10.3398C17.0094 10.5918 17.0714 11.0628 16.8184 11.3918C16.6714 11.5838 16.4484 11.6848 16.2234 11.6848" fill="#008397"/>
</svg>
