<svg xmlns="http://www.w3.org/2000/svg" viewBox="0 0 151.67 91.01"><defs><style>.cls-1{fill:#fff;}</style></defs><g id="Layer_2" data-name="Layer 2"><g id="Layer_1-2" data-name="Layer 1"><path class="cls-1" d="M21,49.26c0,.25-.29.45-.66.45s-.71-.16-.71-.45.29-.46.66-.46S21,49,21,49.26Zm-3.94-.57c-.09.25.17.54.55.62a.59.59,0,0,0,.78-.25c.08-.26-.16-.55-.54-.66a.66.66,0,0,0-.79.29Zm5.59-.22c-.36.09-.62.33-.58.62s.37.42.75.33.62-.33.58-.58S23,48.44,22.64,48.47ZM31,0C13.42,0,0,13.32,0,30.87A31.71,31.71,0,0,0,21.44,61.12c1.62.3,2.19-.7,2.19-1.53s0-5.11,0-7.76c0,0-8.85,1.89-10.71-3.77,0,0-1.44-3.68-3.52-4.63,0,0-2.9-2,.2-2a6.69,6.69,0,0,1,4.89,3.26c2.77,4.89,7.41,3.48,9.22,2.65a7,7,0,0,1,2-4.27c-7.07-.78-14.2-1.8-14.2-14a9.62,9.62,0,0,1,3-7.46,11.94,11.94,0,0,1,.33-8.58c2.64-.83,8.73,3.41,8.73,3.41a30,30,0,0,1,15.89,0s6.08-4.25,8.73-3.41a11.91,11.91,0,0,1,.32,8.58c2,2.24,3.27,4,3.27,7.46,0,12.2-7.45,13.18-14.52,14,1.16,1,2.15,2.9,2.15,5.87,0,4.27,0,9.54,0,10.58,0,.82.58,1.82,2.19,1.53,12.65-4.2,21.22-16.21,21.22-30.23C62.74,13.32,48.51,0,31,0ZM12.3,43.63c-.17.13-.13.42.08.66s.5.29.66.12.13-.41-.09-.65S12.46,43.47,12.3,43.63Zm-1.37-1c-.09.16,0,.36.29.49a.37.37,0,0,0,.54-.09c.09-.16,0-.37-.29-.49S11,42.48,10.93,42.61Zm4.1,4.5c-.2.16-.13.54.16.78s.66.33.82.13.09-.54-.16-.78S15.19,46.91,15,47.11Zm-1.44-1.86c-.21.13-.21.45,0,.75s.54.41.7.29a.57.57,0,0,0,0-.79c-.17-.29-.5-.42-.7-.25Z"/><path class="cls-1" d="M79.14,47.56a22.94,22.94,0,0,1-2.41,4.51,24.17,24.17,0,0,1-3.56,4.2,15.67,15.67,0,0,1-4.41,2.9,9.06,9.06,0,0,1-4.93.7,10.45,10.45,0,0,1-5.2-2.27,9.41,9.41,0,0,1-3.11-5.28,21.83,21.83,0,0,0,2.27,1,11.88,11.88,0,0,0,1.68.49,4.67,4.67,0,0,0,1.32.07A10.8,10.8,0,0,0,62,53.72a3,3,0,0,0,2.27-2.38,14.79,14.79,0,0,0,.35-4.68,47.5,47.5,0,0,0-.81-5.95q-.63-3.21-1.18-6.22l-3.71,8.88-1.68,3.92c-.32-.7-.63-1.34-.91-1.93a4.69,4.69,0,0,1-.21-2.48l.49-1.19,5.6-14.54.63-1.32.07-.07a14.71,14.71,0,0,1,1.85-3.22,5.77,5.77,0,0,1,3.67-2,4.35,4.35,0,0,1,2.06.63,22.36,22.36,0,0,1,2.73,1.68,16.65,16.65,0,0,1,2.3,2c.63.65.88,1.12.74,1.39a3.46,3.46,0,0,0-2.14.14,6,6,0,0,0-1.85,1.23,8.77,8.77,0,0,0-1.43,1.75,6.57,6.57,0,0,0-.8,1.64,12.73,12.73,0,0,0-.32,5.35c.26,2,.59,4,1,6.08s.8,3.92,1.12,5.69a8.44,8.44,0,0,1-.07,4.27,14.06,14.06,0,0,0,3-3.5c.87-1.4,1.51-2.49,1.93-3.28l1.67-3.15,3.36-8.25a10.16,10.16,0,0,0,.1,1.23,19.31,19.31,0,0,1,.14,2,14.17,14.17,0,0,1-.21,2.76,20.52,20.52,0,0,1-.94,3.6Z"/><path class="cls-1" d="M110,49.17a19,19,0,0,1-1.54,3,17.33,17.33,0,0,1-1.92,2.52,10.3,10.3,0,0,1-2.13,1.75,4.41,4.41,0,0,1-2.24.66A9,9,0,0,1,99,56.51a12.65,12.65,0,0,1-2.44,2.17,4.32,4.32,0,0,1-2.31.77,7.89,7.89,0,0,1-4.79-1.78,15.77,15.77,0,0,1-3.88-4.3q-1,5.31-2,11.25T82.25,75.87a86,86,0,0,0-.35,9.34c.07,2.68.46,4.5,1.16,5.48l-1.51-1.11a14.85,14.85,0,0,1-2-1.79,13.28,13.28,0,0,1-1.89-2.62,11.91,11.91,0,0,1-1.29-3.77,19.35,19.35,0,0,1-.18-4.27c.07-1.95.21-4.23.42-6.81s.48-5.38.8-8.39.68-6,1.05-9,.75-6,1.12-8.81.7-5.36,1-7.55.64-4,.8-5.49.27-2.38.32-2.76a6.84,6.84,0,0,0-.28-2.2c-.19-.54-.4-1.08-.63-1.64a4.37,4.37,0,0,1,1.05.66c.7.49,1.51,1.12,2.44,1.89s1.84,1.58,2.73,2.45a10.11,10.11,0,0,1,1.89,2.34A31,31,0,0,1,91.34,27a5.47,5.47,0,0,1,2.83-2.55A6.45,6.45,0,0,1,97,24.32a15.16,15.16,0,0,1,3.46.95A14.18,14.18,0,0,1,103.61,27a5.39,5.39,0,0,1,1.88,2.13A14.6,14.6,0,0,1,106.72,35a29.27,29.27,0,0,1-.7,6.57,36.11,36.11,0,0,1-2.1,6.54,39.9,39.9,0,0,1-3,5.7h.14a4.28,4.28,0,0,0,3.29-1.72,23,23,0,0,0,2.79-4.23c.47-.93.91-1.86,1.33-2.79s.79-1.82,1.12-2.66L113,34.14a8.3,8.3,0,0,0,.14,1.23,11.16,11.16,0,0,1,.14,2,21.21,21.21,0,0,1-.21,2.76,18.59,18.59,0,0,1-.91,3.6l-.27.49L111,46.73ZM91,46.52c-.27-.8-.51-1.58-.69-2.35s-.35-1.54-.49-2.34c-.33.75-.6,1.42-.81,2s-.39,1.25-.56,1.92-.31,1.39-.45,2.13-.3,1.64-.49,2.66a6.16,6.16,0,0,0,.45,3,1.48,1.48,0,0,0,1.79,1,3.23,3.23,0,0,0,1.5-1.11A15.19,15.19,0,0,0,93,50.92a14.15,14.15,0,0,1-1.19-2.2C91.47,48,91.19,47.21,91,46.52Zm2.52-2.66c.09.42.27,1.06.53,1.92a19.73,19.73,0,0,0,.73,2.13c.42-.88.83-1.84,1.22-2.86S96.71,43,97,41.9s.63-2.13.9-3.18a28.5,28.5,0,0,0,.63-2.9A21.56,21.56,0,0,0,98.82,31a4,4,0,0,0-.67-2.38c-.23-.23-.61-.07-1.15.49a11.79,11.79,0,0,0-1.36,1.68A18.27,18.27,0,0,0,93.16,37,16.17,16.17,0,0,0,93.47,43.86Z"/><path class="cls-1" d="M136.18,37.57q-.42,3.84-1.08,8c-.45,2.78-.95,5.63-1.51,8.57A81.93,81.93,0,0,0,139,44.7a57.17,57.17,0,0,0,3.81-10.1,40.78,40.78,0,0,0,1.43-9.86,20.67,20.67,0,0,0-1.61-8.63,12,12,0,0,0-2.24-3.39,10.2,10.2,0,0,0-3.21-2.34,10.1,10.1,0,0,0-3.92-.91,9.93,9.93,0,0,0-4.33.91,6.55,6.55,0,0,1,1.43-4.27,5.32,5.32,0,0,1,4-1.88,15.51,15.51,0,0,1,9.33,2.41,16.69,16.69,0,0,1,6.19,7.58A19.5,19.5,0,0,1,151.66,22a32.65,32.65,0,0,1-.94,8.49,47.66,47.66,0,0,1-3.08,8.78A78.53,78.53,0,0,1,143,47.81a83.44,83.44,0,0,1-5.52,7.86,85.06,85.06,0,0,1-5.8,6.64l-.42,1.75c-.52,2.19-1.06,4.4-1.65,6.64s-1.21,4.37-1.88,6.4a51.7,51.7,0,0,1-2.21,5.59A19.41,19.41,0,0,1,123,86.92a10,10,0,0,1-3.39,2.73,13.13,13.13,0,0,1-4.13,1.25,12.07,12.07,0,0,1-4.12-.14A8.32,8.32,0,0,1,108,89.3a5,5,0,0,1-1.81-2.77,6.16,6.16,0,0,1,.52-4,18.25,18.25,0,0,1,2.59-4.16,51.87,51.87,0,0,1,4-4.51q2.31-2.31,5-4.62t5.46-4.4c.65-2.8,1.26-5.8,1.81-9s1-6.66,1.4-10.34l.14-1.26-.84,2.52c-.51,1.35-1,2.73-1.5,4.15a26.39,26.39,0,0,1-1.71,3.95A12.71,12.71,0,0,1,120.94,58a4.49,4.49,0,0,1-2.45,1.44,3.49,3.49,0,0,1-1.92-.32,7.77,7.77,0,0,1-2.13-1.39,8.63,8.63,0,0,1-1.78-2.28,6.58,6.58,0,0,1-.81-2.93c0-1.26,0-2.7,0-4.34s.06-3.29.1-5,.09-3.38.11-5,.05-3.18.07-4.58,0-2.57.07-3.53,0-1.59,0-1.92q0-1.39,0-2.13a4.46,4.46,0,0,0-.39-1.57,4.63,4.63,0,0,1,1.12.7c.75.51,1.61,1.15,2.59,1.92s1.93,1.6,2.87,2.48a7.35,7.35,0,0,1,1.81,2.38,6.57,6.57,0,0,1,.63,2.34,11,11,0,0,1-.28,3.32q-.63,3.91-1,6.5t-.84,5.07c-.27,1.65-.44,2.83-.48,3.53s0,1.24.24,1.36a.68.68,0,0,0,.73-.1,3.94,3.94,0,0,0,.84-.81,5.28,5.28,0,0,0,.56-.8,34.78,34.78,0,0,0,2.13-4.55c.73-1.81,1.48-3.61,2.28-5.38l3.07-7.76c.05-.6.07-1.13.07-1.57V31.7q0-.7,0-1.44c0-.49-.06-1.06-.11-1.71q-.14-1.39-.21-2.34a4.77,4.77,0,0,0-.49-1.78c0-.05.18,0,.53.28s.8.55,1.36.94,1.18.86,1.85,1.4,1.33,1.08,2,1.64a22.78,22.78,0,0,1,1.71,1.68,5.4,5.4,0,0,1,1,1.54,5.77,5.77,0,0,1,.56,2.3A21.88,21.88,0,0,1,136.18,37.57ZM116.47,83.91A17.26,17.26,0,0,0,119.33,79a72.18,72.18,0,0,0,3.22-9.41q-1.89,1.61-3.57,3.32c-1.11,1.14-2.16,2.28-3.14,3.39s-1.86,2.19-2.66,3.22-1.49,1.93-2.09,2.73c-1.45,2-2.22,3.39-2.31,4.29s.22,1.4.94,1.47a5.43,5.43,0,0,0,3-1A16.45,16.45,0,0,0,116.47,83.91Z"/></g></g></svg>