<svg width="24" height="24" viewBox="0 0 24 24" fill="none" xmlns="http://www.w3.org/2000/svg">
<path fill-rule="evenodd" clip-rule="evenodd" d="M11.7767 13.4648C11.1077 13.4648 10.4407 13.2438 9.88273 12.8018L5.39773 9.1858C5.07473 8.9258 5.02473 8.4528 5.28373 8.1308C5.54473 7.8098 6.01673 7.7588 6.33873 8.0178L10.8197 11.6298C11.3827 12.0758 12.1757 12.0758 12.7427 11.6258L17.1787 8.0198C17.5007 7.7568 17.9727 7.8068 18.2347 8.1288C18.4957 8.4498 18.4467 8.9218 18.1257 9.1838L13.6817 12.7958C13.1197 13.2418 12.4477 13.4648 11.7767 13.4648" fill="#57FBDA"/>
<mask id="mask0_151_4497" style="mask-type:alpha" maskUnits="userSpaceOnUse" x="1" y="2" width="22" height="20">
<path fill-rule="evenodd" clip-rule="evenodd" d="M1 2H22.4999V21.5H1V2Z" fill="white"/>
</mask>
<g mask="url(#mask0_151_4497)">
<path fill-rule="evenodd" clip-rule="evenodd" d="M6.839 20H16.659C16.661 19.998 16.669 20 16.675 20C17.816 20 18.828 19.592 19.604 18.817C20.505 17.92 21 16.631 21 15.188V8.32C21 5.527 19.174 3.5 16.659 3.5H6.841C4.326 3.5 2.5 5.527 2.5 8.32V15.188C2.5 16.631 2.996 17.92 3.896 18.817C4.672 19.592 5.685 20 6.825 20H6.839ZM6.822 21.5C5.279 21.5 3.901 20.94 2.837 19.88C1.652 18.698 1 17.032 1 15.188V8.32C1 4.717 3.511 2 6.841 2H16.659C19.989 2 22.5 4.717 22.5 8.32V15.188C22.5 17.032 21.848 18.698 20.663 19.88C19.6 20.939 18.221 21.5 16.675 21.5H16.659H6.841H6.822Z" fill="#57FBDA"/>
</g>
</svg>
