<?xml version="1.0" encoding="iso-8859-1"?>
<!-- Generator: Adobe Illustrator 19.0.0, SVG Export Plug-In . SVG Version: 6.00 Build 0)  -->
<svg version="1.1" id="Layer_1" xmlns="http://www.w3.org/2000/svg" xmlns:xlink="http://www.w3.org/1999/xlink" x="0px" y="0px"
	 width="22px" height="22px" viewBox="0 0 512 512" style="enable-background:new 0 0 512 512;" xml:space="preserve">
<g>
	<g>
		<g>
			<path fill="#1f197a" fill-rule="evenodd" d="M369.179,177.853c25.26,0,45.81-20.55,45.81-45.811s-20.55-45.811-45.81-45.811c-25.26,0-45.811,20.55-45.811,45.811
				S343.918,177.853,369.179,177.853z M369.179,102.4c16.344,0,29.642,13.298,29.642,29.642s-13.298,29.642-29.642,29.642
				s-29.642-13.298-29.642-29.642S352.835,102.4,369.179,102.4z"/>
			<path fill="#1f197a" fill-rule="evenodd" d="M460.8,296.421h-18.863v-31.327c0-40.119-32.639-72.758-72.758-72.758c-7.275,0-14.432,1.069-21.321,3.182
				c-17.353-29.43-49.379-49.221-85.946-49.221h-11.823c-37.255,0-69.799,20.544-86.912,50.894c-0.464-0.28-0.96-0.517-1.491-0.705
				c-7.781-2.754-15.941-4.151-24.255-4.151c-40.119,0-72.758,32.639-72.758,72.758v31.328H51.2c-28.231,0-51.2,22.969-51.2,51.2
				s22.969,51.2,51.2,51.2h94.892c18.256,39.034,56.704,66.803,101.823,69.787v35.307c0,4.466,3.619,8.084,8.084,8.084
				c4.466,0,8.084-3.618,8.084-8.084v-35.307c45.12-2.985,83.566-30.753,101.823-69.787H460.8c28.231,0,51.2-22.969,51.2-51.2
				S489.031,296.421,460.8,296.421z M166.554,246.003c-0.001-46.062,37.472-83.536,83.535-83.536h11.823
				c46.062,0,83.536,37.475,83.536,83.537v19.829c-20.483-22.383-49.233-37.072-81.363-39.198v-35.309
				c0-4.466-3.619-8.084-8.084-8.084c-4.466,0-8.084,3.618-8.084,8.084v35.308c-32.131,2.126-60.881,16.816-81.363,39.198V246.003z
				 M360.786,339.536h-21.647v0.001c-3.823-39.62-35.434-71.231-75.055-75.055v-21.648
				C315.602,246.771,356.85,288.018,360.786,339.536z M247.916,242.835v21.648c-39.62,3.823-71.231,35.434-75.055,75.055h-21.647
				v-0.001C155.151,288.019,196.398,246.771,247.916,242.835z M51.2,382.653c-19.317,0-35.032-15.715-35.032-35.032
				c0-19.317,15.715-35.032,35.032-35.032h13.474v26.947H53.895c-4.466,0-8.084,3.618-8.084,8.084c0,4.466,3.618,8.084,8.084,8.084
				h81.118c0.615,9.305,2.284,18.327,4.89,26.947H51.2z M150.384,288.099c-8.704,15.383-14.141,32.845-15.372,51.439h-54.17v-74.443
				c0-31.203,25.387-56.589,56.589-56.589c6.471,0,12.816,1.085,18.861,3.224c0.048,0.017,0.097,0.027,0.146,0.043
				c-3.916,10.68-6.055,22.21-6.055,34.231V288.099z M247.917,452.409c-51.519-3.938-92.766-45.185-96.703-96.703h21.648
				c3.823,39.62,35.434,71.231,75.055,75.055V452.409z M256,398.821c-4.466,0-8.084,3.618-8.084,8.084v7.582
				c-30.694-3.69-55.092-28.088-58.782-58.782h4.887c4.466,0,8.084-3.618,8.084-8.084c0-4.466-3.619-8.084-8.084-8.084h-4.887
				c3.69-30.694,28.088-55.092,58.782-58.782v7.582c0,4.466,3.619,8.084,8.084,8.084c4.466,0,8.084-3.619,8.084-8.084v-7.582
				c30.694,3.69,55.092,28.088,58.782,58.782h-4.887c-4.466,0-8.084,3.618-8.084,8.084c0,4.466,3.619,8.084,8.084,8.084h4.887
				c-3.69,30.694-28.088,55.092-58.782,58.782v-7.582C264.084,402.44,260.466,398.821,256,398.821z M264.084,452.407v-21.648
				c39.62-3.823,71.231-35.434,75.055-75.055h21.648C356.85,407.223,315.602,448.471,264.084,452.407z M361.615,288.098v-42.095
				c0-12.576-2.347-24.612-6.614-35.703c4.608-1.19,9.358-1.794,14.178-1.794c31.203,0,56.589,25.387,56.589,56.589v74.442h-48.781
				C375.757,320.942,370.319,303.481,361.615,288.098z M460.8,382.653h-88.703c2.606-8.62,4.275-17.642,4.89-26.947h81.118
				c4.466,0,8.084-3.618,8.084-8.084c0-4.466-3.618-8.084-8.084-8.084h-16.168v-26.947H460.8c19.317,0,35.032,15.715,35.032,35.032
				C495.832,366.938,480.117,382.653,460.8,382.653z"/>
			<path fill="#1f197a" fill-rule="evenodd" d="M256,129.955c35.828,0,64.978-29.15,64.978-64.978S291.828,0,256,0c-35.828,0-64.978,29.15-64.978,64.978
				S220.172,129.955,256,129.955z M256,16.168c26.914,0,48.809,21.895,48.809,48.809S282.914,113.787,256,113.787
				c-26.914,0-48.809-21.895-48.809-48.809S229.086,16.168,256,16.168z"/>
			<path fill="#1f197a" fill-rule="evenodd" d="M285.642,347.621c0-16.344-13.298-29.642-29.642-29.642s-29.642,13.298-29.642,29.642s13.298,29.642,29.642,29.642
				S285.642,363.965,285.642,347.621z M256,361.095c-7.43,0-13.474-6.044-13.474-13.474s6.044-13.474,13.474-13.474
				c7.43,0,13.474,6.044,13.474,13.474S263.43,361.095,256,361.095z"/>
			<path fill="#1f197a" fill-rule="evenodd" d="M137.432,177.853c25.26,0,45.811-20.55,45.811-45.811s-20.55-45.811-45.811-45.811c-25.26,0-45.81,20.55-45.81,45.811
				S112.171,177.853,137.432,177.853z M137.432,102.4c16.344,0,29.642,13.298,29.642,29.642s-13.298,29.642-29.642,29.642
				s-29.642-13.298-29.642-29.642S121.087,102.4,137.432,102.4z"/>
		</g>
	</g>
</g>
<g>
</g>
<g>
</g>
<g>
</g>
<g>
</g>
<g>
</g>
<g>
</g>
<g>
</g>
<g>
</g>
<g>
</g>
<g>
</g>
<g>
</g>
<g>
</g>
<g>
</g>
<g>
</g>
<g>
</g>
</svg>
