<svg width="24" height="24" viewBox="0 0 24 24" fill="none" xmlns="http://www.w3.org/2000/svg">
<path fill-rule="evenodd" clip-rule="evenodd" d="M17.887 12.1465C17.519 12.1465 17.198 11.8755 17.145 11.5005C17.088 11.0895 17.373 10.7105 17.784 10.6535C18.824 10.5075 19.609 9.60551 19.611 8.55351C19.611 7.51051 18.863 6.62851 17.832 6.45951C17.424 6.39251 17.147 6.00651 17.214 5.59751C17.282 5.18851 17.665 4.91451 18.076 4.97951C19.834 5.26851 21.111 6.77251 21.111 8.55551C21.107 10.3505 19.766 11.8905 17.991 12.1395C17.956 12.1445 17.921 12.1465 17.887 12.1465" fill="#57FBDA"/>
<mask id="mask0_151_4515" style="mask-type:alpha" maskUnits="userSpaceOnUse" x="18" y="14" width="5" height="5">
<path fill-rule="evenodd" clip-rule="evenodd" d="M18.9785 14.0016H22.7725V18.5312H18.9785V14.0016Z" fill="white"/>
</mask>
<g mask="url(#mask0_151_4515)">
<path fill-rule="evenodd" clip-rule="evenodd" d="M20.8618 18.5312C20.5598 18.5312 20.2748 18.3472 20.1608 18.0482C20.0128 17.6612 20.2078 17.2272 20.5948 17.0802C21.2728 16.8222 21.2728 16.5372 21.2728 16.4002C21.2728 15.9622 20.7158 15.6562 19.6178 15.4922C19.2088 15.4302 18.9258 15.0492 18.9868 14.6382C19.0478 14.2282 19.4278 13.9552 19.8408 14.0082C22.2638 14.3712 22.7728 15.5092 22.7728 16.4002C22.7728 16.9442 22.5588 17.9372 21.1288 18.4822C21.0408 18.5152 20.9508 18.5312 20.8618 18.5312" fill="#57FBDA"/>
</g>
<path fill-rule="evenodd" clip-rule="evenodd" d="M11.8867 15.914C9.51073 15.914 6.67773 16.206 6.67773 17.596C6.67773 18.997 9.51073 19.291 11.8867 19.291C14.2627 19.291 17.0947 19 17.0947 17.613C17.0947 16.209 14.2627 15.914 11.8867 15.914M11.8867 20.791C10.2277 20.791 5.17773 20.791 5.17773 17.596C5.17773 14.414 10.2277 14.414 11.8867 14.414C13.5457 14.414 18.5947 14.414 18.5947 17.613C18.5947 20.791 13.7217 20.791 11.8867 20.791" fill="#57FBDA"/>
<path fill-rule="evenodd" clip-rule="evenodd" d="M11.8864 5.5C10.1944 5.5 8.8184 6.877 8.8184 8.569C8.8154 9.389 9.1294 10.156 9.7044 10.735C10.2794 11.314 11.0454 11.635 11.8614 11.638L11.8864 12.388V11.638C13.5784 11.638 14.9554 10.262 14.9554 8.569C14.9554 6.877 13.5784 5.5 11.8864 5.5M11.8864 13.138H11.8594C10.6394 13.134 9.4964 12.656 8.6404 11.792C7.7824 10.929 7.3134 9.783 7.3184 8.566C7.3184 6.05 9.3674 4 11.8864 4C14.4064 4 16.4554 6.05 16.4554 8.569C16.4554 11.088 14.4064 13.138 11.8864 13.138" fill="#57FBDA"/>
<path fill-rule="evenodd" clip-rule="evenodd" d="M5.88609 12.1465C5.85209 12.1465 5.81709 12.1445 5.78209 12.1395C4.00709 11.8905 2.66709 10.3505 2.66309 8.55751C2.66309 6.77251 3.94009 5.26851 5.69809 4.97951C6.11909 4.91351 6.49209 5.19051 6.56009 5.59751C6.62709 6.00651 6.35009 6.39251 5.94209 6.45951C4.91109 6.62851 4.16309 7.51051 4.16309 8.55551C4.16509 9.60551 4.95009 10.5085 5.98909 10.6535C6.40009 10.7105 6.68509 11.0895 6.62809 11.5005C6.57509 11.8755 6.25409 12.1465 5.88609 12.1465" fill="#57FBDA"/>
<path fill-rule="evenodd" clip-rule="evenodd" d="M2.912 18.5312C2.823 18.5312 2.733 18.5152 2.645 18.4822C1.214 17.9362 1 16.9432 1 16.4002C1 15.5102 1.509 14.3712 3.933 14.0082C4.346 13.9562 4.724 14.2282 4.786 14.6382C4.847 15.0492 4.564 15.4302 4.155 15.4922C3.057 15.6562 2.5 15.9622 2.5 16.4002C2.5 16.5372 2.5 16.8212 3.179 17.0802C3.566 17.2272 3.761 17.6612 3.613 18.0482C3.499 18.3472 3.214 18.5312 2.912 18.5312" fill="#57FBDA"/>
</svg>
